# xmcd
#
# Track frame offsets: 
#        150
#        13848
#        27883
#        41454
#        53268
#        66081
#        79494
#        95628
#        110361
#        123130
#        136586
#        149683
#        163467
#        177945
#        191977
#        206788
#        220793
#        232844
#        245356
#        258088
#        270293
#        283638
#        295413
#        306694
#        319572
#
# Disc length: 4439 seconds
#
# Revision: 2
# Processed by: cddbd v1.5.2PL0 Copyright (c) Steve Scherf et al.
# Submitted via: ExactAudioCopy v1.1
#
DISCID=70115519
DTITLE=Sonny Boy Williamson - Blue Bird Blues
DYEAR=2003
DGENRE=Blues
TTITLE0=Good Morning School Girl (mono)
TTITLE1=Blue Bird Blues (mono)
TTITLE2=Sugar Mama Blues (mono)
TTITLE3=Got The Bottle Up And Gone (mono)
TTITLE4=Early In The Morning (mono)
TTITLE5=Whiskey Headed Blues (mono)
TTITLE6=Decoration Blues (mono)
TTITLE7=Deep Down In The Ground (mono)
TTITLE8=I Been Dealing With The Devil (mono)
TTITLE9=My Little Machine (mono)
TTITLE10=Jivin' The Blues (mono)
TTITLE11=Western Union Man (mono)
TTITLE12=My Baby Made A Change (mono)
TTITLE13=Mattie Mae Blues (mono)
TTITLE14=Sloppy Drunk Blues (mono)
TTITLE15=Million Years Blues (mono)
TTITLE16=She Was A Dreamer (mono)
TTITLE17=My Black Name Blues (mono)
TTITLE18=Sonny Boy's Jump (mono)
TTITLE19=Elevator Woman (mono)
TTITLE20=Hoodoo Hoodoo (mono)
TTITLE21=Mellow Chick Swing (mono)
TTITLE22=Polly Put Your Kettle On (mono)
TTITLE23=Alcohol Blues (mono)
TTITLE24=Better Cut That Out (mono)
EXTD=Part of the "When the sun goes down" series. Bluebird/BMG/Arista 
EXTD=labels.\nUPC 828765515627
EXTT0=
EXTT1=
EXTT2=
EXTT3=
EXTT4=
EXTT5=
EXTT6=
EXTT7=
EXTT8=
EXTT9=
EXTT10=
EXTT11=
EXTT12=
EXTT13=
EXTT14=
EXTT15=
EXTT16=
EXTT17=
EXTT18=
EXTT19=
EXTT20=
EXTT21=
EXTT22=
EXTT23=
EXTT24=
PLAYORDER=
